Coordinates
version=1
nRows=11
nColumns=40
inDegrees=yes

Units are S.I. units (second, meters, Newtons, ...)
Angles are in degrees.

endheader
time	pelvis_tilt	pelvis_list	pelvis_rotation	pelvis_tx	pelvis_ty	pelvis_tz	hip_flexion_r	hip_adduction_r	hip_rotation_r	knee_angle_r	knee_angle_r_beta	ankle_angle_r	subtalar_angle_r	mtp_angle_r	hip_flexion_l	hip_adduction_l	hip_rotation_l	knee_angle_l	knee_angle_l_beta	ankle_angle_l	subtalar_angle_l	mtp_angle_l	lumbar_extension	lumbar_bending	lumbar_rotation	arm_flex_r	arm_add_r	arm_rot_r	elbow_flex_r	pro_sup_r	wrist_flex_r	wrist_dev_r	arm_flex_l	arm_add_l	arm_rot_l	elbow_flex_l	pro_sup_l	wrist_flex_l	wrist_dev_l
     36.98014286	     -3.55316676	     -6.07653047	      0.65789445	      1.11893609	      0.93328282	      0.38353768	     29.45944576	     -5.56811587	     -7.20651444	     43.49447451	     43.49447451	      1.35066863	    -11.88379727	     -1.06502993	     13.63622159	     -6.54062671	     -6.80672183	     22.85296085	     22.85296085	     14.86041732	     -9.57331837	     -0.37892744	    -11.64778190	      5.23940335	      0.35429047	      4.99631808	    -15.56949602	     -0.58868195	     28.07082017	     46.92772908	      0.00000000	      0.00000000	      8.61712468	    -17.57434528	     -5.43796701	     60.38577488	     46.72715471	      0.00000000	      0.00000000
     36.99278571	     -3.72764972	     -6.05832600	      0.24656751	      1.11816026	      0.93339109	      0.38406501	     29.43967265	     -5.41580500	     -7.40451703	     39.91064955	     39.91064955	      1.05695422	    -10.56343929	     -0.69191564	     13.20986537	     -6.56816554	     -7.15877200	     22.42313197	     22.42313197	     14.97845116	     -9.55274443	     -0.37957537	    -11.57834090	      5.23946249	      0.30024468	      3.86369310	    -16.02257999	     -0.82346962	     27.53307996	     46.95186827	      0.00000000	      0.00000000	      9.14460634	    -17.82500320	     -5.70206447	     60.99114017	     46.76553373	      0.00000000	      0.00000000
     37.00542857	     -3.82898507	     -5.99471150	     -0.15814283	      1.11757389	      0.93353181	      0.38464200	     29.18199809	     -5.30702504	     -7.71163044	     36.12456320	     36.12456320	      0.74579002	     -8.82347029	     -0.45489158	     12.64334507	     -6.55264455	     -7.59681121	     21.91117911	     21.91117911	     15.10631285	     -9.41921437	     -0.46009701	    -11.56200781	      5.24200303	      0.41473932	      2.65207717	    -16.44311949	     -1.18378811	     27.11552964	     46.97789536	      0.00000000	      0.00000000	      9.64884176	    -17.98983130	     -6.05472232	     62.04449108	     46.81808474	      0.00000000	      0.00000000
     37.01807143	     -4.11698888	     -5.87922532	     -0.57800032	      1.11693975	      0.93329242	      0.38551630	     29.07021607	     -5.15721065	     -7.94688007	     32.30662326	     32.30662326	      0.35180975	     -7.10646635	     -0.05223668	     12.30849009	     -6.49842511	     -8.02190894	     21.44360219	     21.44360219	     15.21214177	     -9.31587715	     -0.55411073	    -11.35297111	      5.08239253	      0.36176335	      1.51787287	    -16.71426323	     -1.47257908	     26.84504172	     46.99531081	      0.00000000	      0.00000000	     10.01313440	    -18.28054993	     -6.39352197	     62.95635650	     46.86438593	      0.00000000	      0.00000000
     37.03071429	     -4.16583885	     -5.62781840	     -0.97455165	      1.11663642	      0.93324611	      0.38631633	     28.58531944	     -5.24420624	     -8.57490685	     28.49263913	     28.49263913	     -0.16813826	     -4.57168604	     -0.37288527	     11.61893397	     -6.29241757	     -8.58379062	     20.83295381	     20.83295381	     15.20332904	     -9.05108295	     -1.09534865	    -11.46014078	      4.77779655	      0.43941736	      0.08660303	    -16.99290712	     -2.81867964	     27.36015858	     47.03523835	      0.00000000	      0.00000000	     10.00159535	    -18.36790602	     -7.29460132	     65.37211731	     46.98608487	      0.00000000	      0.00000000
     37.04335714	     -4.30795616	     -5.48939475	     -1.33779361	      1.11636200	      0.93305290	      0.38739338	     28.09235818	     -5.02009053	     -8.89120505	     24.67917720	     24.67917720	     -0.64582799	     -2.67803688	      0.30891737	     11.11251962	     -6.20308186	     -8.95583642	     20.36349016	     20.36349016	     15.29053094	     -8.99715470	     -1.25806269	    -11.35993131	      4.66667233	      0.39337514	     -0.94655311	    -17.16771666	     -3.22320993	     27.25069174	     47.05141286	      0.00000000	      0.00000000	     10.34697513	    -18.62173463	     -7.69722899	     66.29584738	     47.03859866	      0.00000000	      0.00000000
     37.05600000	     -4.41285918	     -5.25035725	     -1.68084327	      1.11627382	      0.93273972	      0.38853785	     27.56991351	     -4.92976294	     -9.37585336	     21.20133524	     21.20133524	     -1.00317911	     -0.47081622	      1.09242239	     10.52065450	     -6.00246555	     -9.38811054	     19.82214211	     19.82214211	     15.36118152	     -8.83485483	     -1.50853373	    -11.29890250	      4.43527268	      0.45569264	     -2.07620693	    -17.30134603	     -3.70009481	     27.27691946	     47.06509369	      0.00000000	      0.00000000	     10.65850368	    -18.77654477	     -8.18865563	     67.50435254	     47.10194848	      0.00000000	      0.00000000
     37.06864286	     -4.44309767	     -5.00780246	     -2.00359215	      1.11647328	      0.93235919	      0.38987182	     27.02583394	     -4.84462296	     -9.94733781	     18.23219569	     18.23219569	     -1.14466685	      1.75503175	      2.07361501	      9.82711911	     -5.80076852	     -9.78135387	     19.27622838	     19.27622838	     15.42704035	     -8.67186631	     -1.87619432	    -11.24132800	      4.14680965	      0.48764456	     -3.20980161	    -17.37712700	     -4.30126239	     27.51754189	     47.07617892	      0.00000000	      0.00000000	     10.91048971	    -18.87166850	     -8.76852929	     68.88603606	     47.17485650	      0.00000000	      0.00000000
     37.08128571	     -4.55127331	     -4.69152837	     -2.29653448	      1.11668381	      0.93174027	      0.39124099	     26.79460891	     -4.89846207	    -10.64273716	     16.12562706	     16.12562706	     -0.56238227	      3.99264040	      4.80964509	      9.20159735	     -5.49477153	    -10.11458502	     18.62949057	     18.62949057	     15.04465004	     -8.80332558	     -3.19666936	    -11.16173861	      3.82110979	      0.32017117	     -4.56665029	    -17.16440304	     -6.66200619	     29.10489746	     47.10258047	      0.00000000	      0.00000000	     10.66243626	    -18.86556849	    -10.13490054	     71.11190334	     47.33869684	      0.00000000	      0.00000000
     37.09392857	     -4.65163142	     -4.39167086	     -2.55366170	      1.11714325	      0.93107257	      0.39280118	     26.42379452	     -4.80978310	    -10.90898600	     14.17586365	     14.17586365	     -0.60955134	      5.10791294	      5.45627575	      8.63963564	     -5.23518165	    -10.42634910	     18.18609972	     18.18609972	     15.19189766	     -8.64231490	     -3.32713396	    -10.91668980	      3.58014658	      0.42886719	     -5.42913807	    -17.08072773	     -6.84342545	     28.86814335	     47.10792227	      0.00000000	      0.00000000	     11.10797430	    -18.99246672	    -10.38139866	     71.72976521	     47.37220028	      0.00000000	      0.00000000
     37.10657143	     -4.59403483	     -4.15765907	     -2.78755533	      1.11778627	      0.93057859	      0.39452506	     26.08846811	     -4.79914277	    -11.70631105	     13.15564679	     13.15564679	     -0.10484358	      6.72959544	      7.05170183	      7.82013272	     -5.03731118	    -10.76327340	     17.57859850	     17.57859850	     15.11987604	     -8.50200199	     -4.13918870	    -10.93156826	      3.29466533	      0.50757812	     -6.48732682	    -16.89699168	     -8.09868570	     29.51361741	     47.10823863	      0.00000000	      0.00000000	     11.27362991	    -18.89941659	    -11.10700944	     73.11336006	     47.46779765	      0.00000000	      0.00000000
